<svg width="30" height="57" viewBox="0 0 30 57" fill="none" xmlns="http://www.w3.org/2000/svg">
<path d="M25.129 50.7888C25.129 50.7888 22.4076 59.5916 17.898 56.2381C13.3883 52.8847 11.7556 49.112 5.84632 51.8367C-0.062934 54.5614 11.8333 45.3396 25.129 50.7888Z" fill="#04A1E9"/>
<path d="M4.29028 6.21121C4.29028 6.21121 7.01166 -2.59169 11.5213 0.761998C16.0309 4.11533 17.6637 7.88805 23.573 5.16318C29.4822 2.43866 17.5859 11.6604 4.29028 6.21121Z" fill="#7A7A7A"/>
<path d="M12.0485 10.0958C12.8595 9.9443 18.659 9.93144 21.6231 10.3647C25.9662 10.9997 28.5131 14.0007 29.6268 18.2537C30.5882 21.9252 29.6528 25.1891 27.273 28.0383C26.8721 28.5182 27.0909 28.8192 27.3828 29.169C28.6194 30.6508 29.3933 32.3525 29.7981 34.2616C30.9383 39.6364 27.0559 46.9989 19.823 46.9451C17.5343 46.928 15.2448 46.9513 12.9563 46.9991C12.2721 47.0134 11.9748 46.8542 11.9901 46.0686C12.0343 43.8126 12.0232 41.5546 11.982 39.2986C11.9688 38.5779 12.2466 38.373 12.8935 38.374C14.6941 38.3763 16.4951 38.3504 18.2957 38.3112C19.3367 38.2885 20.2373 37.9645 20.6122 36.8393C21.0075 35.6528 20.8947 34.5083 19.9876 33.6254C19.6518 33.2987 19.0661 33.1091 18.5874 33.0941C16.6971 33.0346 14.8032 33.0358 12.9125 33.0855C12.1745 33.105 11.9711 32.8466 11.9822 32.1198C12.017 29.8949 12.0165 27.6686 11.9748 25.4439C11.9614 24.7168 12.2429 24.5241 12.8886 24.5308C14.5972 24.5484 16.3076 24.5669 18.0146 24.5037C20.2654 24.4199 21.2853 22.3899 20.1377 20.3749C19.7702 19.7298 19.2621 19.3539 18.5102 19.3541C15.6716 19.3551 12.833 19.3594 9.99443 19.3351C9.41773 19.3301 9.27824 19.5664 9.2787 20.1193C9.28797 28.6762 9.26758 37.2331 9.29608 45.7898C9.29886 46.6472 9.06971 46.9558 8.23511 46.9499C5.76333 46.9318 3.29109 46.968 0.819048 46.9875C0.152021 46.993 0.0823253 47.0817 0.076858 46.6058C0.0791982 46.4076 0.076858 45.8921 0.076858 45.7731C0.0524828 45.4312 0.0773698 44.8061 0.07686 44.4645C0.0656688 37.0168 -0.0161018 29.617 0.0242377 22.0439C0.0242377 22.0439 0.0242392 21.6142 0.0242392 21.4301C0.0167089 21.1717 -0.0188639 21.1131 0.0131389 20.7864C0.516073 20.302 0.992431 19.7044 1.40567 19.2892C3.98358 16.6996 6.54285 14.0902 9.14107 11.5222C9.86908 10.8027 10.5425 10.2147 11.701 10.3337C11.7593 10.3397 10.7742 10.3337 12.0485 10.0958Z" fill="#03A1E7"/>
</svg>
